<?xml version="1.0" standalone="no"?>
<!DOCTYPE svg PUBLIC "-//W3C//DTD SVG 20010904//EN"
 "http://www.w3.org/TR/2001/REC-SVG-20010904/DTD/svg10.dtd">
<svg version="1.0" xmlns="http://www.w3.org/2000/svg"
 width="512.000000pt" height="512.000000pt" viewBox="0 0 512.000000 512.000000"
 preserveAspectRatio="xMidYMid meet">

<g transform="translate(0.000000,512.000000) scale(0.100000,-0.100000)"
fill="#000000" stroke="none">
<path d="M1290 4785 c-338 -69 -587 -328 -639 -665 -9 -52 -11 -235 -9 -607 3
-519 3 -532 24 -559 39 -53 71 -69 134 -69 63 0 95 16 134 69 20 27 21 41 26
589 5 546 6 563 27 614 61 151 153 241 307 301 33 13 101 17 363 21 305 6 323
7 349 27 53 39 69 71 69 134 0 63 -16 95 -69 134 -26 20 -41 21 -339 23 -227
1 -330 -2 -377 -12z"/>
<path d="M2495 4786 c-101 -44 -125 -178 -46 -257 112 -113 296 -12 267 146
-18 94 -131 151 -221 111z"/>
<path d="M3135 4786 c-94 -42 -124 -169 -58 -247 48 -56 64 -59 376 -59 218 0
296 -3 340 -15 159 -41 274 -145 340 -308 21 -51 22 -68 27 -614 5 -548 6
-562 26 -589 39 -53 71 -69 134 -69 63 0 95 16 134 69 21 27 21 37 21 599 0
503 -2 579 -17 632 -29 106 -58 172 -108 248 -112 172 -264 282 -480 345 -77
22 -689 29 -735 8z"/>
<path d="M2380 4145 c-374 -75 -662 -354 -757 -733 -12 -48 -17 -108 -17 -212
0 -160 19 -255 74 -376 l29 -64 -80 -66 c-240 -200 -410 -489 -480 -814 -26
-121 -38 -445 -20 -533 38 -179 178 -325 358 -372 86 -22 2060 -22 2146 0 180
47 320 193 358 372 18 89 6 412 -20 535 -69 319 -240 609 -475 808 l-84 71 29
65 c95 208 102 477 19 707 -91 250 -307 469 -560 566 -149 58 -366 77 -520 46z
m315 -320 c113 -23 227 -87 316 -176 251 -249 251 -647 -1 -899 -252 -252
-650 -252 -899 -1 -254 254 -254 649 -2 902 156 155 370 219 586 174z m-723
-1380 c360 -271 839 -269 1185 7 l63 50 38 -28 c62 -47 164 -156 220 -237 144
-209 207 -435 200 -720 -3 -147 -9 -165 -72 -211 -27 -21 -33 -21 -1046 -21
-1013 0 -1019 0 -1046 21 -67 49 -69 58 -69 257 1 195 8 246 56 392 59 179
186 371 323 487 38 32 71 58 72 58 2 0 36 -25 76 -55z"/>
<path d="M735 2706 c-101 -44 -125 -178 -46 -257 65 -65 157 -65 222 0 124
124 -15 327 -176 257z"/>
<path d="M4255 2706 c-66 -29 -105 -106 -91 -181 9 -46 62 -100 114 -115 56
-17 115 0 159 46 116 123 -26 318 -182 250z"/>
<path d="M735 2226 c-41 -18 -83 -69 -90 -109 -3 -18 -5 -279 -3 -582 4 -590
2 -569 58 -717 29 -78 106 -194 175 -263 69 -69 185 -146 263 -175 142 -54
155 -55 509 -55 319 0 333 1 359 21 53 39 69 71 69 134 0 63 -16 95 -69 134
-26 20 -44 21 -349 26 -298 5 -326 7 -374 27 -150 60 -239 151 -301 307 -14
36 -17 115 -22 603 -5 547 -6 562 -26 589 -11 15 -32 37 -46 47 -33 25 -113
32 -153 13z"/>
<path d="M4255 2226 c-37 -17 -70 -52 -84 -89 -7 -19 -11 -205 -11 -551 0
-430 -3 -532 -15 -579 -41 -159 -146 -275 -308 -340 -48 -20 -76 -22 -374 -27
-305 -5 -323 -6 -349 -26 -53 -39 -69 -71 -69 -134 0 -63 16 -95 69 -134 26
-20 40 -21 359 -21 354 0 367 1 509 55 78 29 194 106 263 175 69 69 146 185
175 263 56 149 55 132 55 749 0 562 0 572 -21 599 -11 15 -32 37 -46 47 -34
25 -113 32 -153 13z"/>
<path d="M2480 618 c-77 -53 -100 -139 -58 -213 25 -43 93 -85 138 -85 45 0
113 42 138 85 59 103 -18 235 -138 235 -32 0 -57 -7 -80 -22z"/>
</g>
</svg>
